<svg xmlns="http://www.w3.org/2000/svg" width="1em" height="1em" viewBox="0 0 24 24"><path fill="#efd110" d="M11.47 8.53a.75.75 0 0 0 1.06 0l1-1A.75.75 0 0 0 13 6.25h-2a.75.75 0 0 0-.53 1.28l1 1Zm0 6.94a.75.75 0 0 1 1.06 0l1 1a.75.75 0 0 1-.53 1.28h-2a.75.75 0 0 1-.53-1.28l1-1Z"/><path fill="#efd110" fill-rule="evenodd" d="m13.149 12l.187-.161a21.075 21.075 0 0 0 4.844-6.057a1.428 1.428 0 0 0-1.135-2.094l-1.174-.102a44.447 44.447 0 0 0-7.742 0l-1.174.102A1.428 1.428 0 0 0 5.82 5.782a21.076 21.076 0 0 0 4.844 6.057l.187.161l-.187.161A21.076 21.076 0 0 0 5.82 18.22a1.428 1.428 0 0 0 1.135 2.093l1.174.102c2.576.226 5.166.226 7.742 0l1.174-.102a1.428 1.428 0 0 0 1.135-2.093a21.076 21.076 0 0 0-4.844-6.058l-.187-.16Zm-1.145-.994l.002-.002l.351-.302a19.575 19.575 0 0 0 4.447-5.529L15.74 5.08a42.945 42.945 0 0 0-7.48 0l-1.065.093a19.576 19.576 0 0 0 4.448 5.53l.35.302a.01.01 0 0 0 .003.001H12a.01.01 0 0 0 .004 0Zm.002 1.99l-.002-.002H12a.01.01 0 0 0-.004 0l-.003.002l-.35.302a19.577 19.577 0 0 0-4.448 5.53l1.064.092c2.49.218 4.992.218 7.481 0l1.064-.093a19.576 19.576 0 0 0-4.447-5.53l-.35-.301Z" clip-rule="evenodd"/></svg>